<svg width="170" height="57" viewBox="0 0 170 57" fill="none" xmlns="http://www.w3.org/2000/svg">
<path d="M45.746 26.432C45.746 27.164 45.578 27.836 45.242 28.448C44.906 29.048 44.39 29.534 43.694 29.906C42.998 30.278 42.134 30.464 41.102 30.464H39.194V35H36.116V22.364H41.102C42.11 22.364 42.962 22.538 43.658 22.886C44.354 23.234 44.876 23.714 45.224 24.326C45.572 24.938 45.746 25.64 45.746 26.432ZM40.868 28.016C41.456 28.016 41.894 27.878 42.182 27.602C42.47 27.326 42.614 26.936 42.614 26.432C42.614 25.928 42.47 25.538 42.182 25.262C41.894 24.986 41.456 24.848 40.868 24.848H39.194V28.016H40.868ZM53.3244 35.126C52.1364 35.126 51.0444 34.85 50.0484 34.298C49.0644 33.746 48.2784 32.978 47.6904 31.994C47.1144 30.998 46.8264 29.882 46.8264 28.646C46.8264 27.41 47.1144 26.3 47.6904 25.316C48.2784 24.332 49.0644 23.564 50.0484 23.012C51.0444 22.46 52.1364 22.184 53.3244 22.184C54.5124 22.184 55.5984 22.46 56.5824 23.012C57.5784 23.564 58.3584 24.332 58.9224 25.316C59.4984 26.3 59.7864 27.41 59.7864 28.646C59.7864 29.882 59.4984 30.998 58.9224 31.994C58.3464 32.978 57.5664 33.746 56.5824 34.298C55.5984 34.85 54.5124 35.126 53.3244 35.126ZM53.3244 32.318C54.3324 32.318 55.1364 31.982 55.7364 31.31C56.3484 30.638 56.6544 29.75 56.6544 28.646C56.6544 27.53 56.3484 26.642 55.7364 25.982C55.1364 25.31 54.3324 24.974 53.3244 24.974C52.3044 24.974 51.4884 25.304 50.8764 25.964C50.2764 26.624 49.9764 27.518 49.9764 28.646C49.9764 29.762 50.2764 30.656 50.8764 31.328C51.4884 31.988 52.3044 32.318 53.3244 32.318ZM67.9428 35L65.3148 30.23H64.5768V35H61.4988V22.364H66.6648C67.6608 22.364 68.5068 22.538 69.2028 22.886C69.9108 23.234 70.4388 23.714 70.7868 24.326C71.1348 24.926 71.3088 25.598 71.3088 26.342C71.3088 27.182 71.0688 27.932 70.5888 28.592C70.1208 29.252 69.4248 29.72 68.5008 29.996L71.4168 35H67.9428ZM64.5768 28.052H66.4848C67.0488 28.052 67.4688 27.914 67.7448 27.638C68.0328 27.362 68.1768 26.972 68.1768 26.468C68.1768 25.988 68.0328 25.61 67.7448 25.334C67.4688 25.058 67.0488 24.92 66.4848 24.92H64.5768V28.052ZM82.331 22.364V24.83H78.983V35H75.905V24.83H72.557V22.364H82.331ZM92.1018 22.364V24.83H86.9538V27.494H90.8058V29.888H86.9538V35H83.8758V22.364H92.1018ZM99.6955 35.126C98.5075 35.126 97.4155 34.85 96.4195 34.298C95.4355 33.746 94.6495 32.978 94.0615 31.994C93.4855 30.998 93.1975 29.882 93.1975 28.646C93.1975 27.41 93.4855 26.3 94.0615 25.316C94.6495 24.332 95.4355 23.564 96.4195 23.012C97.4155 22.46 98.5075 22.184 99.6955 22.184C100.884 22.184 101.97 22.46 102.954 23.012C103.95 23.564 104.73 24.332 105.294 25.316C105.87 26.3 106.158 27.41 106.158 28.646C106.158 29.882 105.87 30.998 105.294 31.994C104.718 32.978 103.938 33.746 102.954 34.298C101.97 34.85 100.884 35.126 99.6955 35.126ZM99.6955 32.318C100.704 32.318 101.508 31.982 102.108 31.31C102.72 30.638 103.026 29.75 103.026 28.646C103.026 27.53 102.72 26.642 102.108 25.982C101.508 25.31 100.704 24.974 99.6955 24.974C98.6755 24.974 97.8595 25.304 97.2475 25.964C96.6475 26.624 96.3475 27.518 96.3475 28.646C96.3475 29.762 96.6475 30.656 97.2475 31.328C97.8595 31.988 98.6755 32.318 99.6955 32.318ZM110.948 32.624H114.98V35H107.87V22.364H110.948V32.624ZM119.526 22.364V35H116.448V22.364H119.526ZM127.733 35.126C126.545 35.126 125.453 34.85 124.457 34.298C123.473 33.746 122.687 32.978 122.099 31.994C121.523 30.998 121.235 29.882 121.235 28.646C121.235 27.41 121.523 26.3 122.099 25.316C122.687 24.332 123.473 23.564 124.457 23.012C125.453 22.46 126.545 22.184 127.733 22.184C128.921 22.184 130.007 22.46 130.991 23.012C131.987 23.564 132.767 24.332 133.331 25.316C133.907 26.3 134.195 27.41 134.195 28.646C134.195 29.882 133.907 30.998 133.331 31.994C132.755 32.978 131.975 33.746 130.991 34.298C130.007 34.85 128.921 35.126 127.733 35.126ZM127.733 32.318C128.741 32.318 129.545 31.982 130.145 31.31C130.757 30.638 131.063 29.75 131.063 28.646C131.063 27.53 130.757 26.642 130.145 25.982C129.545 25.31 128.741 24.974 127.733 24.974C126.713 24.974 125.897 25.304 125.285 25.964C124.685 26.624 124.385 27.518 124.385 28.646C124.385 29.762 124.685 30.656 125.285 31.328C125.897 31.988 126.713 32.318 127.733 32.318Z" fill="#FBD46D"/>
<rect x="0.5" y="0.5" width="169" height="56" stroke="#FBD46D"/>
</svg>
