<svg width="159" height="57" viewBox="0 0 159 57" fill="none" xmlns="http://www.w3.org/2000/svg">
<rect width="159" height="57" fill="#FBD46D"/>
<path d="M39.194 32.624H43.226V35H36.116V22.364H39.194V32.624ZM47.7721 24.83V27.386H51.8941V29.762H47.7721V32.534H52.4341V35H44.6941V22.364H52.4341V24.83H47.7721ZM63.5224 22.364V24.83H60.1744V35H57.0964V24.83H53.7484V22.364H63.5224ZM69.6392 35.126C68.7152 35.126 67.8872 34.976 67.1552 34.676C66.4232 34.376 65.8352 33.932 65.3912 33.344C64.9592 32.756 64.7312 32.048 64.7072 31.22H67.9832C68.0312 31.688 68.1932 32.048 68.4692 32.3C68.7452 32.54 69.1052 32.66 69.5492 32.66C70.0052 32.66 70.3652 32.558 70.6292 32.354C70.8932 32.138 71.0252 31.844 71.0252 31.472C71.0252 31.16 70.9172 30.902 70.7012 30.698C70.4972 30.494 70.2392 30.326 69.9272 30.194C69.6272 30.062 69.1952 29.912 68.6312 29.744C67.8152 29.492 67.1492 29.24 66.6332 28.988C66.1172 28.736 65.6732 28.364 65.3012 27.872C64.9292 27.38 64.7432 26.738 64.7432 25.946C64.7432 24.77 65.1692 23.852 66.0212 23.192C66.8732 22.52 67.9832 22.184 69.3512 22.184C70.7432 22.184 71.8652 22.52 72.7172 23.192C73.5692 23.852 74.0252 24.776 74.0852 25.964H70.7552C70.7312 25.556 70.5812 25.238 70.3052 25.01C70.0292 24.77 69.6752 24.65 69.2432 24.65C68.8712 24.65 68.5712 24.752 68.3432 24.956C68.1152 25.148 68.0012 25.43 68.0012 25.802C68.0012 26.21 68.1932 26.528 68.5772 26.756C68.9612 26.984 69.5612 27.23 70.3772 27.494C71.1932 27.77 71.8532 28.034 72.3572 28.286C72.8732 28.538 73.3172 28.904 73.6892 29.384C74.0612 29.864 74.2472 30.482 74.2472 31.238C74.2472 31.958 74.0612 32.612 73.6892 33.2C73.3292 33.788 72.8012 34.256 72.1052 34.604C71.4092 34.952 70.5872 35.126 69.6392 35.126ZM89.0458 22.364V24.83H85.6978V35H82.6198V24.83H79.2718V22.364H89.0458ZM98.4566 32.768H93.7406L92.9846 35H89.7626L94.3346 22.364H97.8986L102.471 35H99.2126L98.4566 32.768ZM97.6646 30.392L96.0986 25.766L94.5506 30.392H97.6646ZM106.94 32.624H110.972V35H103.862V22.364H106.94V32.624ZM119.766 35L115.518 29.42V35H112.44V22.364H115.518V27.908L119.73 22.364H123.348L118.452 28.556L123.528 35H119.766Z" fill="#07031A"/>
</svg>
