<svg width="80" height="39" viewBox="0 0 80 39" fill="none" xmlns="http://www.w3.org/2000/svg">
<path d="M12.071 7.38378H8.06046V18H4.22683V7.38378H0.196597V4.04164H12.071V7.38378ZM15.7984 4.04164H19.2978L24.1341 18H20.2415L19.3961 15.2673H15.6804L14.8547 18H10.9424L15.7984 4.04164ZM18.7867 12.7115L17.5481 8.38642L16.2506 12.7115H18.7867ZM29.1275 11.1388V18H25.2938V4.04164H28.2821L33.8851 11.1388V4.04164H37.7188V18H34.6715L29.1275 11.1388ZM42.9464 4.04164L45.4432 10.0772L47.9989 4.04164H52.1668L47.3501 13.38V18H43.5362V13.3407L38.7982 4.04164H42.9464ZM55.4057 4.04164H58.9051L63.7414 18H59.8488L59.0034 15.2673H55.2877L54.462 18H50.5498L55.4057 4.04164ZM58.394 12.7115L57.1554 8.38642L55.8579 12.7115H58.394Z" fill="white"/>
<path d="M12.071 23.3838H8.06046V34H4.22683V23.3838H0.196597V20.0416H12.071V23.3838ZM19.5618 30.7168C20.0074 30.7168 20.3875 30.6185 20.7021 30.4219C21.0166 30.2253 21.2722 29.9698 21.4688 29.6552C21.6654 29.3276 21.8096 28.954 21.9013 28.5346C21.9931 28.1152 22.0389 27.6761 22.0389 27.2174V20.0416H25.8726V27.2174C25.8726 28.1873 25.7481 29.0982 25.499 29.9501C25.25 30.7889 24.8634 31.5163 24.3391 32.1323C23.8149 32.7483 23.153 33.2333 22.3535 33.5871C21.5671 33.941 20.6366 34.118 19.5618 34.118C18.4478 34.118 17.491 33.9345 16.6915 33.5675C15.9051 33.1874 15.2564 32.6828 14.7452 32.0537C14.2341 31.4246 13.8605 30.6972 13.6246 29.8715C13.3887 29.0327 13.2707 28.148 13.2707 27.2174V20.0416H17.1044V27.2174C17.1044 27.6761 17.1502 28.1218 17.242 28.5543C17.3337 28.9737 17.4779 29.3472 17.6745 29.6749C17.8711 29.9894 18.1201 30.245 18.4216 30.4416C18.7361 30.6251 19.1162 30.7168 19.5618 30.7168ZM27.311 26.9029C27.311 26.0509 27.4682 25.2121 27.7828 24.3864C28.1105 23.5607 28.5823 22.8202 29.1983 22.1649C29.8143 21.5096 30.5614 20.9787 31.4395 20.5724C32.3176 20.1661 33.3203 19.963 34.4474 19.963C35.7974 19.963 36.9639 20.2448 37.9468 20.8084C38.9429 21.3588 39.6834 22.0928 40.1684 23.0102L37.2391 25.0942C37.108 24.7534 36.9311 24.4716 36.7083 24.2488C36.4986 24.026 36.2627 23.8491 36.0005 23.718C35.7384 23.5869 35.4632 23.4952 35.1748 23.4428C34.8996 23.3903 34.6309 23.3641 34.3688 23.3641C33.8183 23.3641 33.3399 23.4755 32.9336 23.6983C32.5404 23.908 32.2128 24.1898 31.9506 24.5437C31.7016 24.8845 31.5116 25.2777 31.3805 25.7233C31.2626 26.1558 31.2036 26.5883 31.2036 27.0208C31.2036 27.5058 31.2757 27.971 31.4198 28.4167C31.564 28.8623 31.7737 29.2555 32.0489 29.5962C32.3242 29.937 32.6584 30.2122 33.0516 30.4219C33.4579 30.6185 33.9101 30.7168 34.4081 30.7168C34.6702 30.7168 34.9389 30.6906 35.2141 30.6382C35.4894 30.5727 35.7515 30.4744 36.0005 30.3433C36.2627 30.1991 36.492 30.0222 36.6886 29.8125C36.8983 29.5897 37.0622 29.321 37.1801 29.0064L40.306 30.8741C40.0963 31.3853 39.7752 31.844 39.3427 32.2503C38.9233 32.6566 38.4383 32.9974 37.8879 33.2726C37.3505 33.5478 36.7673 33.7575 36.1382 33.9017C35.5221 34.0459 34.9193 34.118 34.3295 34.118C33.2941 34.118 32.3438 33.9148 31.4788 33.5085C30.6269 33.0891 29.8864 32.5386 29.2573 31.8571C28.6413 31.1756 28.1629 30.4023 27.8221 29.5373C27.4813 28.6722 27.311 27.7941 27.311 26.9029ZM41.6705 34V20.0416H45.5041V25.3497L49.7506 20.0416H54.0757L49.0036 26.2934L54.4296 34H50.0259L46.5658 28.8688L45.5041 29.9698V34H41.6705ZM65.1919 30.6579V34H55.2441V20.0416H65.015V23.3838H59.0778V25.3497H64.1499V28.456H59.0778V30.6579H65.1919ZM66.9746 34V20.0416H73.3837C74.0652 20.0416 74.6943 20.1858 75.271 20.4742C75.8477 20.7494 76.3392 21.1164 76.7455 21.5751C77.1649 22.0207 77.4926 22.5384 77.7285 23.1282C77.9644 23.7049 78.0823 24.2881 78.0823 24.8779C78.0823 25.6905 77.9054 26.4507 77.5515 27.1584C77.1977 27.8531 76.7062 28.4232 76.0771 28.8688L79.026 34H74.7009L72.2434 29.7142H70.8083V34H66.9746ZM70.8083 26.3721H73.2264C73.4623 26.3721 73.6786 26.241 73.8752 25.9789C74.0849 25.7167 74.1897 25.3497 74.1897 24.8779C74.1897 24.393 74.0718 24.026 73.8359 23.777C73.5999 23.5148 73.364 23.3838 73.1281 23.3838H70.8083V26.3721Z" fill="white"/>
</svg>
